<svg xmlns="http://www.w3.org/2000/svg" viewBox="0 0 1052 324" width="100%" height="100%">

  
  <!-- Logo Symbol Group -->
  <g transform="translate(10, 10) scale(1.05)">
    <!-- Core Symbol -->
    <g>
      <!-- Background leaf/burst shape pattern -->
      <path fill="#054944" d="M161.789,108.474l36.522-7.934c0,0-18.772-11.221-40.291-0.229l20.223-31.446c0,0-27.081,8.908-29.71,33.121c-12.049-20.299-40.772-17.811-40.772-17.811l31.447,20.223c-23.274-1.183-36.565,16.923-36.565,16.923l36.534-7.935c-16.001,12.336-11.5,34.45-11.5,34.45l19.98-31.41c10.455,36.673-4.972,63.531-11.498,72.737c10.835-0.851,20.938-0.895,29.574-0.382c2.369-9.945,6.552-38.194-10.196-73.881l34.568,22.23C190.103,137.128,186.192,115.152,161.789,108.474z"/>
      
      <!-- Magenta Section -->
      <path fill="#EA0A8C" d="M122.585,140.398c0.024-4.576,0.677-10.509,3.111-16.397l-30.946,39.441h13.256C108.227,153.367,114.104,144.669,122.585,140.398z"/>
      <path fill="#EA0A8C" d="M189.091,108.096c-0.448-0.352-0.904-0.685-1.362-1.014l-12.608,2.739c15.656,9.79,18.69,25.75,18.836,26.57l1.689,9.49l-8.107-5.214L164.28,125.71c5.174,14.353,7.158,27.171,7.579,37.731h24.695C209.419,146.075,206.202,121.523,189.091,108.096z"/>
      
      <!-- Blue Section -->
      <path fill="#27AAE1" d="M192.463,168.701h-20.516c-0.066,9.056-1.243,16.05-2.241,20.387c2.201,0.187,4.287,0.411,6.237,0.669L192.463,168.701z"/>
      <path fill="#27AAE1" d="M72.067,192.35c-3.682,4.692-6.139,9.951-7.439,15.395c20.427-10.442,44.093-15.851,65.546-18.058c0.911-1.077,6.744-8.233,11.196-19.854c0.144-0.376,0.274-0.755,0.413-1.132H90.623L72.067,192.35z"/>
      
      <!-- Teal Section -->
      <path fill="#00C8B9" d="M135.102,241.807l37.035-47.201c-25.701-2.683-73.472,0.339-108.516,19.63c-0.899,12.814,4.368,25.833,15.236,34.361c4.347,3.41,9.18,5.779,14.197,7.142c0.398,0.108,0.799,0.2,1.199,0.295c0.226,0.054,0.45,0.116,0.676,0.166c5.63,1.239,11.441,1.236,17.02,0.051c0.075-0.016,0.151-0.027,0.225-0.044c0.06-0.013,0.119-0.03,0.179-0.044C121.057,254.217,129.169,249.37,135.102,241.807z"/>
      
      <!-- Gold Section -->
      <path fill="#FFB52A" d="M123.264,148.674c-0.046-0.229-0.321-1.647-0.507-3.855c-6.318,3.85-10.581,10.73-10.785,18.622h31.542c1.757-6.009,2.788-12.118,3.099-18.304c-3.014-1.946-6.521-3.19-10.295-3.503l-5.381,8.46l-5.594,8.795L123.264,148.674z"/>
      
      <!-- White Outline - Enhancing contrast -->
    </g>
  </g>
  
  <!-- Homestead Health Text -->
  <g transform="translate(10, 5)">
    <!-- HOMESTEAD Text - Adding subtle drop shadow for depth -->
    <filter id="dropShadow" x="-20%" y="-20%" width="140%" height="140%">
      <feDropShadow dx="0" dy="1" stdDeviation="0.5" flood-opacity="0.2"/>
    </filter>
    
    <g filter="url(#dropShadow)">
      <g>
        <path fill="#054944" d="M260.048,113.881h9.803l-8.708,31.578h23.396l8.708-31.578h9.803l-21.304,77.25h-9.803l10.052-36.453h-23.396l-10.052,36.453h-9.803L260.048,113.881z"/>
        <path fill="#054944" d="M301.759,152.558c9.09-32.956,15.072-39.738,34.464-39.738c19.498,0,21.794,6.57,12.705,39.526c-9.117,33.061-15.021,39.95-34.413,39.95C295.017,192.296,292.641,185.62,301.759,152.558z M338.117,155.631l1.578-5.722c6.429-23.312,6.356-28.399-5.659-28.399c-12.12,0-15.151,4.875-21.551,28.082l-1.607,5.827c-6.4,23.207-6.193,28.189,5.822,28.189C328.82,183.607,331.687,178.944,338.117,155.631z"/>
        <path fill="#054944" d="M368.807,113.881h10.224l1.134,58.175l33.224-58.175h10.327l-21.304,77.25h-9.486l14.32-51.925l-28.044,48.958h-7.483l-1.054-48.533l-14.203,51.5h-8.959L368.807,113.881z"/>
        <path fill="#054944" d="M435.097,113.881h35.624l-2.483,9.006h-25.821l-6.4,23.207h20.13l-2.484,9.008h-20.13l-7.511,27.232h25.821l-2.425,8.796h-35.624L435.097,113.881z"/>
        <path fill="#054944" d="M454.888,190.389l3.823-8.902c1.494,0.319,8.99,1.801,15.735,1.801c9.8,0,12.516-2.967,14.796-11.233c2.279-8.265,1.805-9.218-7.467-16.107c-11.908-8.795-13.261-10.385-9.345-24.584c3.39-12.293,8.716-18.226,24.84-18.226c6.534,0,12.233,0.741,15.009,1.376l-3.931,8.902c-2.67-0.636-8.76-1.484-13.61-1.484c-8.535,0-10.858,3.073-12.611,9.431c-2.396,8.69-1.816,9.643,6.605,15.789c12.119,8.795,14.141,11.021,10.401,24.584c-4.092,14.835-9.799,20.239-27.294,20.239C463.301,191.978,457.481,190.919,454.888,190.389z"/>
        <path fill="#054944" d="M532.941,122.887h-17.178l2.483-9.006H562.3l-2.483,9.006h-17.073l-18.82,68.244h-9.803L532.941,122.887z"/>
        <path fill="#054944" d="M569.884,113.881h35.624l-2.483,9.006h-25.821l-6.4,23.207h20.13l-2.484,9.008h-20.13l-7.511,27.232h25.821l-2.425,8.796H548.58L569.884,113.881z"/>
        <path fill="#054944" d="M598.535,191.131h-9.589l40.392-77.675h10.327l-2.449,77.675h-10.013l0.661-14.624h-21.922L598.535,191.131z M630.198,128.291l-19.799,39.314h17.811L630.198,128.291z"/>
        <path fill="#054944" d="M665.967,113.986l18.788-0.105c19.949-0.107,22.617,5.51,13.528,38.466c-9.117,33.061-15.018,38.784-34.832,38.784c-16.124,0-18.789,0.105-18.789,0.105L665.967,113.986z M666.2,183.077c11.489,0,14.911-4.768,21.282-27.87l1.431-5.192c6.372-23.1,5.551-27.762-5.938-27.762h-9.484l-16.775,60.825H666.2z"/>
        <path fill="#054944" d="M704.982,152.129h26.664l-1.958,7.1h-26.664L704.982,152.129z"/>
        <path fill="#054944" d="M749.983,113.139h19.184l0.849,38.571l22.125-38.571h19.181l-21.509,77.991h-17.073l10.375-37.619l-15.849,27.657h-11.803l-0.565-27.762l-10.403,37.724h-16.021L749.983,113.139z"/>
        <path fill="#054944" d="M820.696,113.139h18.129l-21.509,77.991h-18.129L820.696,113.139z"/>
        <path fill="#054944" d="M841.132,191.131h-17.284l39.378-78.203h17.916l-3.754,78.203h-18.338l0.815-8.69h-14.861L841.132,191.131z M864.996,137.088l-13.176,30.201h9.695L864.996,137.088z"/>
        <path fill="#054944" d="M904.9,113.139h19.184l0.849,38.571l22.125-38.571h19.181l-21.509,77.991h-17.073l10.374-37.619l-15.849,27.657H910.38l-0.565-27.762l-10.403,37.724h-16.021L904.9,113.139z"/>
        <path fill="#054944" d="M975.613,113.139h18.129l-21.509,77.991h-18.129L975.613,113.139z"/>
      </g>
    </g>
    
    <!-- PLLC Text - Adding more vibrancy to the magenta -->
    <g transform="translate(0, 8)">
      <g>
        <path fill="#FF0A9C" d="M223.144,251.535l4.247-9.18c1.265,0.34,9.806,1.418,13.604,1.418c5.271,0,6.334-0.567,7.136-3.456c0.77-2.777,0.039-3.002-6.147-4.193c-11.473-2.153-13.651-3.91-10.963-13.599c2.64-9.521,9.489-12.354,19.463-12.354c4.818,0,13.082,0.85,14.99,1.53l-4.262,9.237c-3.314-0.51-8.366-1.303-13.408-1.303c-4.025,0-5.054,0.85-5.683,3.116c-0.785,2.834-0.039,3.004,5.458,4.023c12.278,2.323,14.621,3.683,11.855,13.657c-2.608,9.406-8.645,12.579-21.113,12.579C231.01,253.009,224.79,251.932,223.144,251.535z"/>
        <path fill="#FF0A9C" d="M332.88,210.738h18.588c10.768,0,15.684,2.097,12.006,15.356c-3.677,13.259-9.973,15.526-20.626,15.526h-7.481l-3.001,10.823h-11.052L332.88,210.738z M345.339,232.837c2.439,0,5.221-0.227,6.997-6.631c1.776-6.403-1.012-6.572-3.391-6.572h-7.481l-3.661,13.203H345.339z"/>
        <path fill="#FF0A9C" d="M432.088,210.738h29.866l-2.656,9.576H440.54l-1.776,6.404h15.131l-2.655,9.576h-15.131l-1.901,6.856h18.757l-2.577,9.293h-29.866L432.088,210.738z"/>
        <path fill="#FF0A9C" d="M529.36,210.738h29.866l-2.656,9.576h-18.757l-1.776,6.404h15.131l-2.655,9.576h-15.131l-1.901,6.856h18.757l-2.577,9.293h-29.866L529.36,210.738z"/>
        <path fill="#FF0A9C" d="M626.632,210.738h16.944c13.545,0,19.361,2.323,14.223,20.852c-5.138,18.529-12.244,20.852-25.789,20.852h-16.944L626.632,210.738z M634.328,243.886c7.139,0,9.385-3.4,11.476-10.937l0.754-2.718c2.09-7.537,1.65-10.653-5.489-10.653h-5.78l-6.741,24.308H634.328z"/>
        <path fill="#FF0A9C" d="M718.473,210.596h11.505l-0.258,22.382l11.617-21.249h8.388l-0.171,21.249l12.16-22.382h10.371l-23.49,41.988h-8.162l0.321-25.273l-13.639,25.273h-8.443L718.473,210.596z"/>
        <path fill="#FF0A9C" d="M832.434,252.584h-11.221l27.967-41.988h10.256l4.677,41.988h-11.787l-0.494-5.779h-15.698L832.434,252.584z M849.983,225.272l-8.254,12.806h9.351L849.983,225.272z"/>
        <path fill="#FF0A9C" d="M931.853,238.899l-8.171-28.161h12.072l4.928,17.169l14.455-17.169h11.503l-23.615,27.935l-3.818,13.769h-11.109L931.853,238.899z"/>
      </g>
    </g>
  </g>
</svg>