<?xml version="1.0" encoding="UTF-8" standalone="no"?>
<!DOCTYPE svg PUBLIC "-//W3C//DTD SVG 1.0//EN" http://www.w3.org/TR/2001/REC-SVG-20010904/DTD/svg10.dtd">
<svg xmlns="http://www.w3.org/2000/svg" xmlns:xlink="http://www.w3.org/1999/xlink" version="1.0" x="0" y="0" width="6.61250019" height="2.5625" id="svg548">
  <defs id="defs550" />
  <path d="M -1.507882 -1.229949 C -1.498672 -1.229949 2.417446 -1.229949 2.417446 -1.229949 L 3.071675 -0.907445 C 3.071675 -0.907445 3.329673 -0.750793 3.338895 0.013992 C 3.348105 0.778789 3.099317 1.009157 3.099317 1.009157 L 2.472741 1.304019 L -1.618461 1.276365 L -3.037475 1.018367 L -3.037475 0.861726 L -3.101981 0.880146 C -3.101981 0.880146 -3.221758 0.677431 -3.240191 0.004782 C -3.221758 -0.667867 -3.074327 -0.879803 -3.074327 -0.870582 C -3.074327 -0.861372 -3.009833 -0.84294 -3.009833 -0.84294 L -2.991402 -0.971939 L -1.507882 -1.229949 z " style="font-size:12;fill:#0000ff;fill-rule:evenodd;stroke:#0000ff;stroke-width:0.011629;" id="carbody" />
  <path d="M 0.574566 0.852504 L 0.574566 -0.84294 L 1.367004 -1.10095 C 1.367004 -1.10095 1.615793 -0.935087 1.634224 -0.041291 C 1.652656 0.852504 1.403868 1.175008 1.403868 1.175008 L 0.574566 0.852504 z " style="font-size:12;fill-rule:evenodd;stroke:#000000;stroke-width:0.011629;" id="frontwindow" />
  <path d="M -1.166952 -0.732372 L -2.125253 -0.852162 C -2.125253 -0.852162 -2.374041 -0.778446 -2.355609 -0.004428 C -2.337177 0.769579 -2.217388 0.843294 -2.217388 0.843294 L -1.194593 0.695863 L -1.166952 -0.732372 z " style="font-size:12;fill-rule:evenodd;stroke:#000000;stroke-width:0.011629;" id="backwindow" />
</svg>
